<svg xmlns="http://www.w3.org/2000/svg" viewBox="0 0 300 300" fill="none">
  <circle cx="150" cy="130" r="80" fill="#5D39FB" opacity="0.1"/>
  <circle cx="150" cy="130" r="55" fill="#5D39FB" opacity="0.15"/>
  <path d="M150 80c-27.614 0-50 22.386-50 50s22.386 50 50 50 50-22.386 50-50-22.386-50-50-50z" fill="#5D39FB" opacity="0.3"/>
  <path d="M130 120c0 0 8 15 20 15s20-15 20-15" stroke="#5D39FB" stroke-width="3" stroke-linecap="round"/>
  <circle cx="137" cy="110" r="4" fill="#5D39FB"/>
  <circle cx="163" cy="110" r="4" fill="#5D39FB"/>
  <path d="M120 170c0 0 10 25 30 25s30-25 30-25" stroke="#27D48D" stroke-width="2" stroke-linecap="round" stroke-dasharray="4 4"/>
  <circle cx="80" cy="200" r="8" fill="#27D48D" opacity="0.3"/>
  <circle cx="220" cy="90" r="6" fill="#FFE208" opacity="0.5"/>
  <circle cx="240" cy="180" r="10" fill="#5D39FB" opacity="0.1"/>
</svg>
